@startuml

' skinparam linetype polyline
' skinparam linetype ortho

interface AbstractFactory {
    +CreateProductA(): ProductA
    +CreateProductB(): ProductB
}
class ConcreteFactory1{
    +CreateProductA(): ProductA
    +CreateProductB(): ProductB
}
class ConcreteFactory2{
    +CreateProductA(): ProductA
    +CreateProductB(): ProductB
}
interface AbstractProductA{
}
class ProductA1{

}
class ProductA2{

}
interface AbstractProductB{

}
class ProductB1{

}
class ProductB2{

}
class Client

ConcreteFactory1 ..|> AbstractFactory
ConcreteFactory2 ..|> AbstractFactory
ProductA1 ..|> AbstractProductA
ProductA2 ..|> AbstractProductA
ProductB1 ..|> AbstractProductB
ProductB2 ..|> AbstractProductB
ConcreteFactory1 ..> ProductA1
ConcreteFactory1 ..> ProductB1
ConcreteFactory2 ..> ProductA2
ConcreteFactory2 ..> ProductB2
Client --> AbstractFactory
Client --> AbstractProductA
Client --> AbstractProductB
@enduml